<?xml version="1.0" encoding="utf-8"?>
<!-- Generator: Adobe Illustrator 20.1.0, SVG Export Plug-In . SVG Version: 6.00 Build 0)  -->
<svg version="1.1" id="Layer_1" xmlns="http://www.w3.org/2000/svg" xmlns:xlink="http://www.w3.org/1999/xlink" x="0px" y="0px"
	 viewBox="0 0 194.4 232.9" style="enable-background:new 0 0 194.4 232.9;" xml:space="preserve">
<style type="text/css">
	.st0{fill:#1FBB9D;}
	.st1{fill:#8EDDCE;}
</style>
<title>form_selected</title>
<g id="Layer_2">
	<g id="Layer_1-2">
		<path class="st0" d="M32.7,55.2h22.5c0,0.5,0,1,0,1.6c0,43,0,86,0,129.1c0,0.9,0,1.4,1.2,1.4c24,0,48,0,72,0v17.5
			c-0.4,0-0.9,0.1-1.3,0.1c-7.6,0-15.1,0-22.7,0c-1,0-1.3,0.3-1.2,1.3c0.1,1.9,0.1,3.8,0,5.8c0,0.9,0.2,1.1,1.1,1.1
			c3.8-0.1,7.7,0,11.5,0h12.6c0,6.2,0,12.5,0,18.7c0,0.9-0.2,1.2-1.2,1.2c-42,0-84.1,0-126.1,0C0,232.9,0,232.3,0,231.5
			c0-20.8,0-41.5,0-62.3c0-37.5,0-75,0-112.4c0-1.8-0.2-1.5,1.5-1.5h22.7c-0.4,2.1-0.6,4.3-0.6,6.4c0,9.8,0,19.6,0,29.4
			c0,0.4,0,0.8,0,1.2l-0.4,0.2c-2.3-2.4-4.6-4.8-6.9-7.1c-0.5-0.6-1.1-1-1.7-1.5c-1.4-0.9-3.3-0.7-4.6,0.4c-1.3,1-1.7,2.7-1.1,4.2
			c0.3,0.8,0.8,1.6,1.5,2.2c4.4,4.3,8.7,8.7,13.1,13.1c2.9,2.8,5.5,2.8,8.3,0c4.6-4.5,9.1-9.1,13.7-13.7c1.1-1.1,1.5-2.6,1-4.1
			c-0.8-3-4.7-3.8-7.1-1.3s-4.6,4.7-6.9,7c-0.2,0.2-0.3,0.5-0.7,0.4c0-0.2-0.1-0.4-0.1-0.7c0-10.8,0-21.5,0-32.3
			C31.7,57.7,32,56.4,32.7,55.2z"/>
		<path class="st1" d="M128.4,187.2c-24,0-48,0-72,0c-1.3,0-1.2-0.5-1.2-1.4c0-43,0-86,0-129.1c0-0.5,0-1,0-1.6c0-1,0-2,0-3
			c0-17,0-33.9,0-50.9c0-1,0.3-1.3,1.4-1.3c31,0,62.1,0,93.1,0c1.1,0,1.4,0.3,1.4,1.4c-0.1,2.7-0.1,5.4,0,8c0,1.1-0.3,1.3-1.3,1.3
			c-19.7,0-39.4,0-59.2,0c-7.8,0-15.7,0-23.5,0c-0.9,0-1.2,0.2-1.2,1.2c0,54.5,0,109.1,0,163.6c0,1.1,0.4,1.2,1.3,1.2
			c19.9,0,39.8,0,59.8,0c1.6,0,1.6,0,1.6,1.6C128.4,181.2,128.4,184.2,128.4,187.2z"/>
		<path class="st1" d="M194.4,115.3c0,23.5,0,47,0,70.6c0,1.1-0.2,1.4-1.4,1.4c-11.5,0-23,0-34.4,0c-1,0-1.3-0.3-1.2-1.2
			c0.1-2.8,0.1-5.5,0-8.3c0-0.9,0.2-1.1,1.1-1.1c8,0,16,0,24,0.1c1.1,0,1.3-0.3,1.3-1.3c0-43.4,0-86.9,0-130.3c0-1.5,0-1.5,1.6-1.5
			c2.6,0,5.3,0,7.9,0c0.9,0,1.1,0.2,1.1,1.1c0,8.6,0,17.2,0,25.8L194.4,115.3z"/>
		<path class="st1" d="M128.4,212.9h-12.6c-3.8,0-7.7,0-11.5,0c-0.9,0-1.1-0.3-1.1-1.1c0.1-1.9,0.1-3.8,0-5.8c0-1,0.2-1.3,1.2-1.3
			c7.6,0,15.1,0,22.7,0c0.4,0,0.9,0,1.3-0.1c5.4,0.2,10-4,10.3-9.4c0-0.2,0-0.4,0-0.6c0.1-10.6,0-21.1,0-31.7c0-0.3,0.1-0.7-0.1-0.9
			c-2.4,2.4-4.9,4.7-7.3,7.1c-0.8,1-2,1.6-3.3,1.7c-1.6,0.2-3.1-0.6-3.8-2.1c-0.8-1.6-0.5-3.4,0.7-4.7c3.9-3.9,7.7-7.8,11.6-11.6
			c0.8-0.8,1.5-1.5,2.3-2.3c2.7-2.6,5.3-2.6,8,0c2,2,4,4,6,6l7,7c0.5,0.5,1,1.1,1.3,1.7c1.1,1.9,0.5,4.3-1.4,5.4
			c-1.4,0.8-3.2,0.7-4.5-0.4c-1.4-1.2-2.7-2.6-4-3.9s-2.8-3-4.1-4.4l-0.4,0.3c0,0.4,0,0.8,0,1.1c0,10.2,0,20.5,0,30.7
			c0.2,6.8-3.3,13.1-9.1,16.6C134.9,211.9,131.7,212.9,128.4,212.9z"/>
		<path class="st1" d="M32.7,55.2c-0.7,1.2-1,2.5-1,3.9c0,10.8,0,21.5,0,32.3c0,0.2,0,0.4,0.1,0.7c0.5,0.1,0.5-0.2,0.7-0.4
			c2.3-2.3,4.7-4.6,6.9-7s6.2-1.7,7,1.3c0.5,1.4,0.1,3-1,4.1c-4.6,4.5-9.1,9.1-13.7,13.7c-2.9,2.8-5.5,2.8-8.3,0
			c-4.4-4.3-8.7-8.7-13.1-13.1c-0.6-0.6-1.1-1.4-1.5-2.2C8.3,87,8.7,85.3,10,84.3c1.3-1.1,3.1-1.3,4.6-0.4c0.6,0.4,1.2,0.9,1.7,1.5
			c2.3,2.4,4.6,4.8,6.9,7.1l0.4-0.2c0-0.4,0-0.8,0-1.2c0-9.8,0-19.6,0-29.4c0-2.2,0.2-4.3,0.6-6.4c1.6-6.1,6.2-11,12.2-13
			c2.7-1,5.6-0.8,8.4-0.8c0.5,0,0.5,0.3,0.5,0.7c0,2.2,0,4.5,0,6.7c0,0.6-0.3,0.7-0.8,0.7c-1.7-0.1-3.4,0-5.1,0.3
			C36.4,50.4,33.9,52.4,32.7,55.2z"/>
		<path class="st1" d="M121.2,64.8c14.4,0,28.8,0,43.2,0c1,0,1.3,0.2,1.2,1.2c-0.1,2.4-0.1,4.9,0,7.3c0,0.9-0.2,1.1-1.1,1.1
			c-9.1,0-18.2,0-27.4,0c-19.7,0-39.3,0-59,0c-1.1,0-1.4-0.3-1.3-1.3c0.1-2.4,0.1-4.8,0-7.2c0-0.9,0.2-1.1,1.1-1.1
			C92.3,64.8,106.8,64.8,121.2,64.8z"/>
		<path class="st1" d="M121.2,84c14.4,0,28.8,0,43.2,0c1,0,1.3,0.2,1.2,1.2c-0.1,2.4-0.1,4.9,0,7.3c0,0.9-0.2,1.1-1.1,1.1
			c-9,0-17.9,0-26.9,0c-19.8,0-39.7,0-59.5,0c-1.1,0-1.4-0.3-1.3-1.3c0.1-2.4,0.1-4.8,0-7.2c0-0.9,0.2-1.1,1.1-1.1
			C92.3,84,106.8,84,121.2,84z"/>
		<path class="st1" d="M121.1,112.8c-14.4,0-28.7,0-43.1,0c-1,0-1.3-0.2-1.2-1.2c0.1-2.4,0.1-4.9,0-7.3c0-0.9,0.2-1.1,1.1-1.1
			c9.3,0,18.6,0,27.8,0c19.5,0,39,0,58.6,0c1.1,0,1.4,0.3,1.4,1.3c-0.1,2.4-0.1,4.8,0,7.2c0,0.9-0.2,1.1-1.1,1.1
			C150.1,112.8,135.6,112.8,121.1,112.8z"/>
		<path class="st1" d="M121.3,124.8c14.4,0,28.7,0,43.1,0c1,0,1.3,0.2,1.2,1.2c-0.1,2.4-0.1,4.9,0,7.3c0,0.9-0.2,1.1-1.1,1.1
			c-9.7,0-19.4,0-29,0c-19.1,0-38.2,0-57.4,0c-1.1,0-1.4-0.3-1.3-1.4c0.1-2.4,0.1-4.8,0-7.2c0-0.9,0.2-1.1,1.1-1.1
			C92.4,124.8,106.8,124.8,121.3,124.8z"/>
		<path class="st0" d="M192.1,35.5c-1.6,0-3.2,0-4.8,0c-8.8,0.1-17.5,0.1-26.3,0.3c-1.1,0-1.3-0.3-1.3-1.3
			c0.3-8.8,0.5-17.6,0.8-26.5c0-1.4,0.2-2.8,0.3-4.5l31.4,31.8L192.1,35.5z"/>
		<path class="st1" d="M97.1,48c-6.4,0-12.8,0-19.2,0c-0.9,0-1.1-0.2-1.1-1.1c0.1-2.6,0-5.1,0-7.7c0-0.7,0.2-0.9,0.9-0.8
			c13,0,26.1,0,39.1,0c0.7,0,0.9,0.2,0.9,0.9c0,2.6,0,5.2,0,7.8c0,0.8-0.2,1-1,1C110.1,48,103.6,48,97.1,48z"/>
		<path class="st1" d="M89.9,158.4c-4,0-8.1,0-12.1,0c-0.8,0-1-0.2-1-1c0.1-2.6,0-5.2,0-7.8c0-0.7,0.2-0.9,0.9-0.9
			c8.2,0,16.5,0,24.7,0c0.7,0,0.9,0.2,0.9,0.9c0,2.6,0,5.2,0,7.8c0,0.8-0.2,1-1,1C98.1,158.4,94,158.4,89.9,158.4z"/>
	</g>
</g>
</svg>
