<?xml version="1.0" encoding="utf-8"?>
<!-- Generator: Adobe Illustrator 20.1.0, SVG Export Plug-In . SVG Version: 6.00 Build 0)  -->
<svg version="1.1" id="Layer_1" xmlns="http://www.w3.org/2000/svg" xmlns:xlink="http://www.w3.org/1999/xlink" x="0px" y="0px"
	 viewBox="0 0 357 357" style="enable-background:new 0 0 357 357;" xml:space="preserve">
<style type="text/css">
	.st0{fill:#1FBB9D;}
	.st1{fill:#8EDDCE;}
	.st2{fill:none;stroke:#8EDDCE;stroke-width:10;stroke-miterlimit:10;stroke-dasharray:10.83,9.85,9.85,9.84,1.000000e-02,0;}
</style>
<title>globe_selected</title>
<g id="Layer_2">
	<g id="Layer_1-2">
		<path class="st0" d="M178.8,261.8c-46,0-83.3-37.3-83.3-83.3s37.3-83.3,83.3-83.3s83.3,37.3,83.3,83.3
			C262.1,224.4,224.8,261.7,178.8,261.8z"/>
		<path class="st1" d="M178.8,57.3c-66.8,0-121.1,54.4-121.1,121.1S112,299.6,178.8,299.6c66.9,0.6,121.6-53.1,122.2-120
			S247.9,57.9,181,57.3C180.3,57.3,179.5,57.3,178.8,57.3L178.8,57.3z M117,178.4c-0.1-12.1,1.2-24.1,3.7-35.9h51.9v71.7h-51.9
			C118.2,202.5,116.9,190.5,117,178.4z M185,70.3c21.7,3.7,40.2,27.2,48.8,60H185V70.3z M172.6,70.3v60h-48.8
			C132.4,97.4,151,74,172.6,70.3z M172.6,226.6v60c-21.7-3.7-40.2-27.2-48.8-60H172.6z M185,286.6v-60h48.8
			C224.6,259.4,206.6,282.9,185,286.6z M185,214.3v-71.8h51.9c4.9,23.7,4.9,48.1,0,71.8L185,214.3z M249.3,142.5h31.5
			c4,11.6,6,23.7,6.2,35.9c-0.1,12.2-2.2,24.3-6.2,35.9h-31.5c2-11.9,3.1-23.9,3.1-35.9C252.9,166.4,251.9,154.3,249.3,142.5
			L249.3,142.5z M275.8,130.2h-29c-5.6-21.7-14.9-39.6-26-52.6C244.9,88.2,264.7,106.7,275.8,130.2L275.8,130.2z M136.8,78.3
			c-11.8,13-20.4,30.9-26,52.6h-29C92.8,107,112.4,88.2,136.8,78.3z M76.2,142.5h31.6c-4.1,23.7-4.1,48,0,71.8H76.2
			c-4.3-11.1-6.2-23.5-6.2-35.9C69.8,166.2,71.9,154,76.2,142.5z M81.1,226.6h29c5.6,21.7,14.8,39.6,26,52.6
			C112.3,268.5,92.9,249.9,81.1,226.6L81.1,226.6z M220.8,278.5c11.8-13,20.4-30.9,26-52.6h29C264.8,249.8,245.1,268.6,220.8,278.5
			L220.8,278.5z"/>
		<circle class="st2" cx="178.5" cy="178.5" r="173.5"/>
	</g>
</g>
</svg>
