<?xml version="1.0" encoding="utf-8"?>
<!-- Generator: Adobe Illustrator 20.1.0, SVG Export Plug-In . SVG Version: 6.00 Build 0)  -->
<svg version="1.1" id="Layer_1" xmlns="http://www.w3.org/2000/svg" xmlns:xlink="http://www.w3.org/1999/xlink" x="0px" y="0px"
	 viewBox="0 0 395.1 421.6" style="enable-background:new 0 0 395.1 421.6;" xml:space="preserve">
<style type="text/css">
	.st0{fill:#8EDDCE;}
	.st1{fill:#1FBB9D;}
	.st2{fill:#FEFEFE;}
</style>
<title>mail_unselected</title>
<g id="Layer_2">
	<g id="Layer_1-2">
		<path class="st0" d="M51.8,0h291.4c-0.1,1.6-0.3,3.3-0.3,4.9c0,27.7,0,55.4,0,83.1c0,17.7,0.1,35.4,0.2,53.1
			c-0.5,7.4-0.5,14.8,0,22.2c-0.5,11.7-0.3,23.4-0.1,35.1c-0.4,0.4-0.8,0.7-1.3,1c-47.2,28.7-94.4,57.5-141.5,86.2
			c-2.3,1.4-3.8,1.1-5.9-0.2c-29.6-18.1-59.2-36.2-88.8-54.2c-17.9-10.9-35.8-21.9-53.6-32.8l-0.2-35.1c0.5-7.4,0.5-14.8,0-22.2
			c0-1.6,0.1-3.3,0.1-4.9c0-29.2,0.1-58.4,0.1-87.7C52.1,32.4,51.9,16.2,51.8,0z M278.2,141.1c0.4-11.3-0.5-22.5-4.3-33.3
			c-13.5-37.6-48.6-58.8-88.4-53.6c-36.5,4.7-66.7,37.7-68.4,74.5c-1.9,40.7,23.8,75,63.6,83.9c19.7,4.4,38.7,1.3,56.5-8.5
			c2.8-1.5,4.7-3.7,5.1-7s-0.7-6.4-3.5-8.3c-3.7-2.5-7.3-1.8-11.2,0.1c-22.6,11.4-45,10.6-65.7-4c-21-14.8-29.5-35.8-25.9-61.3
			c3.9-27.8,28.9-50.6,56.1-52.5c32.6-2.3,58.4,18.4,66,45.3c3.4,12,2.3,24.2,2.3,36.4c0,0.8-0.2,1.6-0.6,2.4
			c-1.6,3.9-5.3,5.8-9.7,5.1c-3.9-0.6-6.7-3.5-7.1-7.9c-0.7-7.6,0.2-15.3-0.5-23c-2.3-26.3-28.3-45.4-54.1-39.5
			c-24.2,5.2-39.6,29-34.4,53.2c2.6,12.3,10.3,22.9,21.2,29.2c16,9.5,36.1,8,50.6-3.6c2.7-2.1,3.8-2,6,0.6
			c9.7,11.1,26.5,12.3,37.7,2.6c3-2.6,5.4-5.9,7-9.6C279.1,155.7,278,148.4,278.2,141.1z"/>
		<path class="st1" d="M343.2,141.1c16.6,11.9,33.1,23.9,49.7,35.8c1.5,1,2.3,2.7,2.1,4.5c0,78.9,0,157.7,0,236.6c0,3-1,3.5-3.7,3.5
			c-129.2-0.1-258.4-0.1-387.7,0c-3.8,0-3.7-1.7-3.7-4.4c0-70,0-139.9,0-209.9c0-8.6,0-17.3-0.1-25.9c-0.2-1.8,0.6-3.5,2.1-4.5
			C18.7,165,35.3,153,51.8,141.1c0.5,7.4,0.5,14.8,0,22.2l-26.7,19.2l26.9,16c17.9,11,35.7,21.9,53.6,32.9
			c29.6,18.1,59.2,36.1,88.8,54.2c2.1,1.3,3.6,1.6,5.9,0.2c47.1-28.8,94.3-57.6,141.5-86.2c0.4-0.3,0.9-0.6,1.3-1l26.8-16
			l-26.7-19.1C342.8,155.9,342.8,148.5,343.2,141.1z M18.3,199.1v197.3l162-98.6L18.3,199.1z M214.8,297.8l162,98.6V199.2
			L214.8,297.8z M41.9,403.1H353c-0.9-0.6-1.2-0.9-1.5-1.1c-50.4-30.7-100.8-61.4-151.1-92.1c-2.6-1.6-4.1-0.8-6.2,0.4
			c-49.6,30.2-99.1,60.4-148.7,90.6C44.4,401.5,43.5,402.1,41.9,403.1z"/>
		<path class="st2" d="M278.2,141.1c-0.2,7.2,0.9,14.6-2.2,21.5c-5.9,13.5-21.6,19.7-35.1,13.9c-3.6-1.6-6.9-4-9.5-7
			c-2.2-2.6-3.4-2.7-6-0.6c-14.4,11.6-34.5,13-50.5,3.6c-21.3-12.5-28.5-39.9-16-61.3c6.3-10.8,16.9-18.5,29.2-21.2
			c25.8-5.9,51.8,13.2,54.1,39.5c0.7,7.7-0.2,15.4,0.5,23c0.4,4.4,3.2,7.3,7.1,7.9c4.4,0.6,8.1-1.3,9.7-5.1c0.4-0.7,0.6-1.5,0.6-2.4
			c0-12.2,1.1-24.4-2.3-36.4c-7.6-26.8-33.4-47.6-66-45.3c-27.1,1.9-52.1,24.7-56.1,52.5c-3.6,25.5,4.9,46.5,25.9,61.3
			c20.8,14.6,43.1,15.4,65.7,4c3.9-1.9,7.5-2.6,11.2-0.1c2.8,1.9,3.9,4.9,3.5,8.3s-2.3,5.5-5.1,7c-17.8,9.8-36.7,12.9-56.5,8.5
			c-39.7-8.9-65.5-43.3-63.6-83.9c1.7-36.9,31.9-69.8,68.4-74.5c39.8-5.2,74.9,16,88.4,53.6C277.7,118.6,278.6,129.8,278.2,141.1z
			 M197.6,160.7c15.1,0,26.8-12,26.8-27.4c-0.1-14.2-12.4-26.3-26.8-26.2c-14.7,0.2-26.6,12.1-26.9,26.8
			c-0.1,14.8,11.9,26.8,26.7,26.9C197.4,160.7,197.5,160.7,197.6,160.7L197.6,160.7z"/>
		<path class="st0" d="M197.6,160.7c-14.8,0.1-26.9-11.8-27-26.6c0-0.1,0-0.2,0-0.3c0.3-14.7,12.2-26.5,26.9-26.8
			c14.4,0,26.8,12,26.8,26.2C224.4,148.7,212.7,160.7,197.6,160.7z"/>
	</g>
</g>
</svg>
