<?xml version="1.0" encoding="utf-8"?>
<!-- Generator: Adobe Illustrator 16.0.3, SVG Export Plug-In . SVG Version: 6.00 Build 0)  -->
<!DOCTYPE svg PUBLIC "-//W3C//DTD SVG 1.1//EN" "http://www.w3.org/Graphics/SVG/1.1/DTD/svg11.dtd">
<svg version="1.1" id="Шар_1" xmlns="http://www.w3.org/2000/svg" xmlns:xlink="http://www.w3.org/1999/xlink" x="0px" y="0px"
	 width="510.322px" height="659.071px" viewBox="0 0 510.322 659.071" enable-background="new 0 0 510.322 659.071"
	 xml:space="preserve">
<path fill="#FFFFFF" d="M213.3,430.002c-3.814,15.049-7.329,29.013-10.895,42.961c-4.798,18.771-9.62,37.534-14.46,56.293
	c-4.431,17.181-11.044,33.529-18.967,49.368c-13.637,27.26-30.326,52.572-48.994,76.617c-0.631,0.812-1.261,1.641-1.999,2.35
	c-3.009,2.894-7.852,1.27-8.403-2.511c-0.519-3.563-1.183-7.106-1.631-10.679c-2.308-18.396-3.846-36.854-4.274-55.396
	c-0.317-13.735,0.038-27.458,1.204-41.146c1.268-14.894,3.959-29.544,7.421-44.091c13.297-55.876,26.441-111.788,39.637-167.688
	c2.206-9.344,4.321-18.711,6.621-28.032c0.523-2.12,0.403-3.919-0.42-5.946c-9.412-23.193-12.543-47.32-10.106-72.149
	c1.454-14.807,5.445-28.965,12.401-42.194c5.409-10.285,12.331-19.38,21.415-26.726c8.425-6.814,17.873-11.521,28.618-13.243
	c9.614-1.54,19.156-1.125,28.437,2.133c12.151,4.265,20.704,12.514,26.221,24.006c4.074,8.485,5.807,17.547,6.19,26.89
	c0.359,8.797-0.84,17.465-2.459,26.075c-3.208,17.053-8.355,33.595-13.315,50.188c-5.205,17.41-10.341,34.84-15.406,52.291
	c-1.192,4.109-2.159,8.304-2.921,12.516c-5.477,30.3,11.27,54.654,35.371,64.341c11.421,4.59,23.25,5.652,35.375,4.102
	c18.69-2.392,34.526-10.78,48.395-23.214c9.133-8.187,16.755-17.654,23.389-27.943c10.865-16.851,18.648-35.101,24.472-54.219
	c5.863-19.254,9.607-38.929,11.604-58.958c1.346-13.506,2.087-27.03,1.797-40.598c-0.377-17.628-3.271-34.833-9.531-51.354
	c-13.568-35.801-38.435-60.728-73.508-75.636c-13.8-5.866-28.24-9.443-43.077-11.591c-14.157-2.05-28.379-2.534-42.617-1.835
	c-32.421,1.592-62.962,9.895-90.695,27.072c-40.079,24.822-65.768,60.471-78.175,105.783c-4.74,17.313-6.721,35.019-6.2,52.969
	c0.314,10.839,1.796,21.514,4.827,31.964c3.878,13.371,10.24,25.404,19.047,36.166c1.521,1.859,3.056,3.71,4.477,5.644
	c3.01,4.095,4.071,8.572,2.753,13.609c-2.083,7.961-4.011,15.961-6.018,23.94c-0.794,3.159-1.588,6.319-2.456,9.458
	c-0.364,1.315-0.803,2.637-1.41,3.854c-2.539,5.088-6.991,7.613-12.619,6.869c-2.338-0.309-4.678-1.077-6.861-2.004
	c-16.938-7.197-30.939-18.251-42.36-32.622c-11.252-14.157-18.95-30.155-24.24-47.356c-4.863-15.812-7.58-32.013-8.495-48.529
	c-0.485-8.744-0.657-17.47-0.162-26.232c1.22-21.585,5.664-42.481,13.285-62.667c20.416-54.077,56.032-95.379,105.659-124.696
	c25.316-14.955,52.593-24.929,81.321-31.036c26.139-5.557,52.589-7.871,79.264-6.988c43.232,1.431,84.108,11.769,121.637,33.755
	c40.544,23.753,71.113,56.712,90.69,99.598c8.975,19.661,14.523,40.295,16.945,61.755c1.428,12.647,1.461,25.348,0.836,38.045
	c-0.641,13.027-1.734,26.014-3.699,38.92c-6.351,41.708-19.357,80.984-42.724,116.428c-16.172,24.529-36.303,45.117-61.342,60.72
	c-21.262,13.249-44.341,21.578-69.105,25.082c-12.581,1.78-25.252,2.647-37.977,1.348c-23.98-2.45-45.608-10.731-64.357-26.052
	c-5.874-4.799-10.993-10.338-15.076-16.783C215.146,432.195,214.479,431.492,213.3,430.002"/>
</svg>
