<?xml version="1.0" encoding="utf-8"?>
<!-- Generator: Adobe Illustrator 16.0.3, SVG Export Plug-In . SVG Version: 6.00 Build 0)  -->
<!DOCTYPE svg PUBLIC "-//W3C//DTD SVG 1.1//EN" "http://www.w3.org/Graphics/SVG/1.1/DTD/svg11.dtd">
<svg version="1.1" id="Шар_1" xmlns="http://www.w3.org/2000/svg" xmlns:xlink="http://www.w3.org/1999/xlink" x="0px" y="0px"
	 width="18.167px" height="13.17px" viewBox="0 0 18.167 13.17" enable-background="new 0 0 18.167 13.17" xml:space="preserve">
<path fill-rule="evenodd" clip-rule="evenodd" fill="#FFFFFF" d="M8.579,4.621C3.174,0.958,2.816,1.662,2.816,1.673
	C2.392,2.625,4.037,3.831,4.037,3.831l-0.47,0.014c0,0-0.691-0.022-0.541,0.473C3.18,4.951,4,5.607,4.006,5.614
	c0.404,0.193,0.908,0.011,0.908,0.011S4.38,5.904,4.042,6.117C3.484,6.479,3.884,6.8,3.945,6.861
	c0.727,0.78,1.868,0.729,1.868,0.729s-0.53,0.639-0.535,0.882c0,0.395,0.354,0.639,0.384,0.669c0.315,0.217,0.783,0.243,0.787,0.243
	C3.525,12.496,0,9.366,0,9.354c0.394,2.28,3.734,4.479,9.608,3.628c4.764-0.761,6.288-6,6.288-6s1.968,0.111,2.189-1.064
	c-0.615,0.112-1.503-0.07-1.503-0.07s1.514-0.659,1.584-1.449c-0.888,0.688-2.21,0.497-2.24,0.497
	c-1.029-3.599-3.503-3.599-3.503-3.599s1.05-0.598,1.02-0.962c-0.322-0.233-0.971,0.232-1.025,0.232
	C12.582,0.452,12.485,0.124,12.272,0c-0.313,0.03-0.585,0.608-0.585,0.608s-0.153-0.284-0.293-0.284
	C9.739,0.78,8.574,4.616,8.579,4.621z"/>
</svg>
