<?xml version="1.0" encoding="utf-8"?>
<!-- Generator: Adobe Illustrator 16.0.3, SVG Export Plug-In . SVG Version: 6.00 Build 0)  -->
<!DOCTYPE svg PUBLIC "-//W3C//DTD SVG 1.1//EN" "http://www.w3.org/Graphics/SVG/1.1/DTD/svg11.dtd">
<svg version="1.1" id="Шар_1" xmlns="http://www.w3.org/2000/svg" xmlns:xlink="http://www.w3.org/1999/xlink" x="0px" y="0px"
	 width="545.779px" height="85.951px" viewBox="0 0 545.779 85.951" enable-background="new 0 0 545.779 85.951"
	 xml:space="preserve">
<g>
	<path fill="#F2782A" d="M55.061,5.694h34.913c17.523,0,24.766-5.697,24.756-5.694H54.932C13.816,0.019-3.814,28.159,0.685,52.518
		c3.19,17.275,19.04,31.942,42.111,33.355c9.346,0.571,18.371-2.163,18.371-2.163C33.136,84.222,13.402,69.646,11.22,49.463
		C8.567,24.879,26.505,5.694,55.061,5.694"/>
	<path fill="#F2782A" d="M44.547,15.628c28.834-2.506,43.338,16.446,41.175,35.468C84.166,64.768,70.826,75.616,56.16,74.91
		c-6.084-0.295-11.475-2.863-11.475-2.863c16.569,0.615,29.187-10.768,30.74-24.442C77.591,28.59,61.898,17.63,44.547,15.628"/>
	<path fill="#F2782A" d="M54.135,25.598c-19.511-3.962-29.82,9.33-28.499,21.932c0.941,9.054,9.75,16.324,19.517,15.947
		c4.043-0.156,7.647-1.817,7.647-1.817c-11.022,0.298-17.341-6.562-18.29-15.621C33.189,33.437,42.331,26.763,54.135,25.598"/>
	<path fill="#57585A" d="M331.593,22.399c-2.109-0.604-4.396-0.907-6.392-0.907c-4.699,0-9.56,3.361-11.775,8.052h-0.176v-6.991
		h-7.786v45.141h8.316V47.162c0-11.333,4.869-18.394,12.325-18.394c0.316,0,1.192,0.054,1.362,0.06L331.593,22.399z"/>
	<path fill="#57585A" d="M135.518,30.166c-3.187-1.328-6.373-1.946-9.029-1.946c-9.292,0-14.516,8.315-14.516,16.908
		c0,8.052,4.339,16.901,15.047,16.901c2.835,0,6.37-0.888,8.938-2.567l0.625,7.431c-3.457,1.601-7.438,1.864-10.445,1.864
		c-13.634,0-23.017-10.711-23.017-23.629c0-13.726,9.21-23.636,23.017-23.636c3.362,0,7.701,0.794,10.086,1.767L135.518,30.166z"/>
	<path fill="#57585A" d="M228.859,58.84c3.274,2.126,7.968,3.187,10.354,3.187c3.805,0,8.498-1.592,8.498-6.461
		c0-8.23-19.558-7.521-19.558-20.179c0-9.381,6.991-13.892,15.932-13.892c3.893,0,7.079,0.794,10.353,1.768l-0.709,7.258
		c-1.858-1.152-6.815-2.301-8.765-2.301c-4.248,0-7.964,1.771-7.964,5.487c0,9.204,19.564,6.552,19.564,20.974
		c0,9.65-7.707,14.076-15.753,14.076c-4.25,0-8.592-0.445-12.391-2.479L228.859,58.84z"/>
	<path fill="#57585A" d="M170.374,50.166c0,6.725-4.329,11.863-12.566,11.863c-3.805,0-8.41-2.567-8.41-7.346
		c0-7.968,11.157-8.677,15.671-8.677c1.771,0,3.538,0.176,5.305,0.176V50.166z M179.051,67.689
		c-0.176-1.324-0.352-3.714-0.352-8.847V40.167c0-12.3-5.224-18.672-18.145-18.672c-5.754,0-10.711,1.764-14.868,4.247l0.443,7.079
		c3.359-2.828,8.404-4.602,13.094-4.602c8.325,0,11.15,3.98,11.15,11.769c-3.271-0.173-5.572-0.173-8.85-0.173
		c-8.583,0-20.977,3.538-20.977,14.868c0,9.823,6.818,14.073,16.557,14.073c7.606,0,12.033-4.166,13.979-6.906h0.182v5.839H179.051z
		"/>
	<path fill="#57585A" d="M443.284,22.553h8.052v7.17h0.176c2.48-5.133,8.499-8.234,14.783-8.234
		c11.685,0,16.905,7.255,16.905,19.386v26.819h-8.319V44.327c0-10.532-2.304-15.672-9.565-16.114
		c-9.471,0-13.712,7.619-13.712,18.591v20.89h-8.319V22.553z"/>
	<path fill="#57585A" d="M539.953,32.304c-2.716,0-4.737-2.166-4.737-4.964c0-2.803,2.021-4.969,4.737-4.969
		c2.684,0,4.715,2.166,4.715,4.969C544.667,30.138,542.636,32.304,539.953,32.304 M539.94,21.495c-3.225,0-5.84,2.624-5.84,5.845
		c0,3.218,2.615,5.836,5.84,5.836c3.215,0,5.839-2.618,5.839-5.836C545.779,24.119,543.155,21.495,539.94,21.495"/>
	<path fill="#57585A" d="M538.822,26.851v-2.065h1.328c0.71,0,1.406,0.22,1.406,0.998c0,0.892-0.552,1.067-1.406,1.067H538.822z
		 M542.674,25.83c0-1.29-0.775-1.924-2.349-1.924h-2.624v6.844h1.12v-3.026h0.942l1.905,3.026h1.181l-1.94-3.026
		C541.983,27.724,542.674,26.936,542.674,25.83"/>
	<path fill="#57585A" d="M290.246,50.166c0,6.728-4.339,11.863-12.567,11.863c-3.813,0-8.416-2.567-8.416-7.346
		c0-7.965,11.154-8.677,15.668-8.677c1.768,0,3.548,0.179,5.315,0.179V50.166z M298.568,40.167c0-12.3-5.224-18.675-18.151-18.675
		c-5.752,0-10.712,1.771-14.868,4.25l0.446,7.076c3.365-2.828,8.404-4.596,13.097-4.596c8.322,0,11.154,3.978,11.154,11.763
		c-3.281-0.17-5.572-0.17-8.851-0.17c-8.586,0-20.977,3.542-20.977,14.868c0,9.823,6.819,14.073,16.551,14.073
		c7.606,0,12.033-4.166,13.979-6.903h0.179v5.836h7.792c-0.176-1.324-0.352-3.714-0.352-8.85V40.167z"/>
	<path fill="#57585A" d="M415.883,62.029c-9.826,0-14.161-8.853-14.161-16.901c0-8.59,5.218-16.905,14.161-16.905
		c8.854,0,14.07,8.315,14.07,16.905C429.954,53.177,425.622,62.029,415.883,62.029 M415.883,21.492
		c-13.81,0-23.014,9.91-23.014,23.636c0,12.918,9.383,23.629,23.014,23.629c13.547,0,22.927-10.711,22.927-23.629
		C438.81,31.402,429.602,21.492,415.883,21.492"/>
	<path fill="#57585A" d="M496.969,40.786c0.621-5.839,3.986-12.563,12.127-12.563c7.17,0,11.245,5.66,11.245,12.563H496.969z
		 M509.275,21.492c-12.745,0-21.159,9.465-21.159,22.835c0,14.695,7.35,24.43,23.369,24.43c7.438,0,11.069-1.773,14.25-2.919v-8.322
		c-2.035,1.679-8.407,4.514-13.892,4.514c-7.887,0-14.874-6.108-14.874-15.046h32.215C529.184,32.467,524.319,21.492,509.275,21.492
		"/>
	<path fill="#57585A" d="M204.47,28.223c7.164,0,11.233,5.66,11.233,12.563h-23.366C192.961,34.947,196.323,28.223,204.47,28.223
		 M192.336,46.983h32.219c0-14.517-4.869-25.491-19.916-25.491c-12.742,0-21.152,9.465-21.152,22.835
		c0,14.695,7.346,24.43,23.363,24.43c7.443,0,11.066-1.773,14.259-2.919v-8.322c-2.041,1.679-8.414,4.514-13.901,4.514
		C199.331,62.029,192.336,55.921,192.336,46.983"/>
	<path fill="#57585A" d="M387.109,62.039c-3.799,0-6.995-2.835-6.995-8.053V29.314h11.949v-6.762l-11.949-0.003v-7.082l-8.315,1.56
		l0.006,5.522h-23.62c-1.645,0.081-15.562-1.23-15.586,12.868c-0.025,12.645,19.542,11.938,19.542,20.16
		c0,4.866-4.688,6.461-8.492,6.461c-2.383,0-7.076-1.062-10.344-3.187l-0.442,7.428c3.805,2.031,8.14,2.48,12.378,2.48
		c8.049,0,15.712-4.424,15.74-14.064c0.041-14.466-19.899-11.895-19.539-21.162c0.157-4.034,4.499-4.141,7.61-4.22h22.753
		l0.007,26.352c0,9.025,5.309,13.095,13.882,13.095c2.655,0,5.221-0.713,7.076-1.24v-7.076
		C391.529,61.241,389.67,62.039,387.109,62.039"/>
</g>
</svg>
